<?xml version="1.0" encoding="utf-8"?>
<!-- Generator: Adobe Illustrator 16.0.0, SVG Export Plug-In . SVG Version: 6.00 Build 0)  -->
<!DOCTYPE svg PUBLIC "-//W3C//DTD SVG 1.1//EN" "http://www.w3.org/Graphics/SVG/1.1/DTD/svg11.dtd">
<svg version="1.1" id="Calque_1" xmlns="http://www.w3.org/2000/svg" xmlns:xlink="http://www.w3.org/1999/xlink" x="0px" y="0px"
	 width="25.07px" height="31.105px" viewBox="0 0 25.07 31.105" enable-background="new 0 0 25.07 31.105" xml:space="preserve">
<g>
	<path fill="#C41414" d="M24.641,12.082C24.641,5.646,18.995,0,12.559,0S0.477,5.646,0.477,12.082
		c0,5.09,7.181,12.758,10.504,16.033c-2.416,0.181-4.187,0.769-4.187,1.466c0,0.842,2.58,1.524,5.765,1.524s5.765-0.683,5.765-1.524
		c0-0.698-1.771-1.284-4.188-1.466C17.459,24.841,24.641,17.172,24.641,12.082z M12.559,19.735c-4.428,0-8.029-3.602-8.029-8.029
		c0-4.428,3.602-8.03,8.029-8.03s8.029,3.602,8.029,8.03C20.588,16.132,16.986,19.735,12.559,19.735z"/>
</g>
</svg>
