<?xml version="1.0" encoding="utf-8"?>
<!-- Generator: Adobe Illustrator 16.0.0, SVG Export Plug-In . SVG Version: 6.00 Build 0)  -->
<!DOCTYPE svg PUBLIC "-//W3C//DTD SVG 1.1//EN" "http://www.w3.org/Graphics/SVG/1.1/DTD/svg11.dtd">
<svg version="1.1" id="Layer_1" xmlns="http://www.w3.org/2000/svg" xmlns:xlink="http://www.w3.org/1999/xlink" x="0px" y="0px"
	 width="65px" height="50px" viewBox="421 275.5 65 50" enable-background="new 421 275.5 65 50" xml:space="preserve">
<g>
	<path fill="#D15241" d="M423.513,300.5c-0.175,7.475,1.351,14.992,4.84,17.811c9.78,7.902,40.516,7.902,50.294,0
		c3.489-2.818,5.015-10.336,4.839-17.811H423.513L423.513,300.5z"/>
	<path fill="#E56353" d="M478.647,283.43c-8.891-8.89-41.404-8.89-50.294,0c-2.993,2.994-4.673,10.014-4.84,17.07h59.973
		C483.322,293.444,481.641,286.424,478.647,283.43z"/>
	<path fill="#FFFFFF" d="M462.683,298.836l-15.925-11.697c-1.361-1-3.282-0.027-3.282,1.662V300.5h20.05
		C463.525,299.875,463.245,299.25,462.683,298.836z"/>
	<path fill="#EBF0F3" d="M446.758,313.862l15.925-11.699c0.562-0.412,0.843-1.037,0.843-1.662h-20.05v11.699
		C443.476,313.889,445.397,314.864,446.758,313.862z"/>
</g>
</svg>
