<?xml version="1.0" encoding="utf-8"?>
<!-- Generator: Adobe Illustrator 16.0.4, SVG Export Plug-In . SVG Version: 6.00 Build 0)  -->
<!DOCTYPE svg PUBLIC "-//W3C//DTD SVG 1.1//EN" "http://www.w3.org/Graphics/SVG/1.1/DTD/svg11.dtd">
<svg version="1.1" id="Calque_1" xmlns="http://www.w3.org/2000/svg" xmlns:xlink="http://www.w3.org/1999/xlink" x="0px" y="0px"
	 width="90px" height="122px" viewBox="475.5 290.5 90 122" enable-background="new 475.5 290.5 90 122" xml:space="preserve">
<g>
	<path d="M497.814,328.909c1.203,3.14,4.365,11.11,6.719,14.683l0.266,0.407c1.796,2.771,5.137,7.931,15.7,7.931
		c10.556,0,13.901-5.154,15.696-7.922l0.27-0.414c2.359-3.574,5.518-11.544,6.723-14.684c2-0.751,3.429-2.7,3.429-4.979v-5.625
		c0-2.025-1.131-3.791-2.783-4.686v-2.344c0.001-6.247-2.272-20.777-23.331-20.777c-14.61,0-23.334,7.77-23.334,20.777v2.365
		c-1.641,0.912-2.783,2.682-2.783,4.664v5.625C494.384,326.209,495.812,328.158,497.814,328.909z M499.33,318.305
		c0-0.113,0.205-0.3,0.311-0.312c1.364,0,2.473-1.12,2.473-2.5v-4.217c0-7.199,3.189-15.778,18.388-15.778
		c15.196,0,18.387,8.58,18.387,15.778v4.217c0,1.38,1.107,2.5,2.473,2.5c0.172,0,0.31,0.141,0.31,0.312v5.625
		c0,0.17-0.139,0.31-0.31,0.31c-1.03,0-1.955,0.647-2.314,1.624c-1.133,3.054-4.542,11.693-6.695,14.955l-0.294,0.449
		c-1.634,2.521-3.675,5.662-11.56,5.662c-7.89,0-9.927-3.144-11.563-5.668l-0.288-0.441c-2.587-3.928-6.653-14.846-6.694-14.957
		c-0.363-0.977-1.285-1.623-2.316-1.623c-0.17,0-0.31-0.139-0.31-0.311v-5.625H499.33L499.33,318.305z M546.539,360.095h-52.078
		c-10.455,0-18.961,8.598-18.961,19.168v14.07c0,10.568,8.506,19.166,18.961,19.166h52.078c10.456,0,18.961-8.598,18.961-19.166
		v-14.068C565.5,368.692,556.995,360.095,546.539,360.095z M560.554,393.333c0,7.812-6.287,14.166-14.015,14.166h-52.078
		c-7.727,0-14.015-6.355-14.015-14.166v-14.068c0-7.813,6.288-14.168,14.015-14.168h52.078c7.727,0,14.015,6.355,14.015,14.168
		V393.333z"/>
</g>
</svg>
