<?xml version="1.0" encoding="utf-8"?>
<!-- Generator: Adobe Illustrator 16.0.4, SVG Export Plug-In . SVG Version: 6.00 Build 0)  -->
<!DOCTYPE svg PUBLIC "-//W3C//DTD SVG 1.1//EN" "http://www.w3.org/Graphics/SVG/1.1/DTD/svg11.dtd">
<svg version="1.1" id="Calque_1" xmlns="http://www.w3.org/2000/svg" xmlns:xlink="http://www.w3.org/1999/xlink" x="0px" y="0px"
	 width="90px" height="55px" viewBox="0 0 90 55" enable-background="new 0 0 90 55" xml:space="preserve">
<g>
	<path d="M46.819,52c0,1.65-1.269,3-2.82,3s-2.821-1.35-2.821-3V3c0-1.65,1.27-3,2.821-3s2.82,1.35,2.82,3V52z"/>
</g>
<g>
	<path d="M88,52c0,1.65-1.27,3-2.819,3c-1.551,0-2.821-1.35-2.821-3V30.5c0-1.65,1.271-3,2.821-3c1.55,0,2.819,1.35,2.819,3V52z"/>
</g>
<g>
	<path d="M82.85,2.094c1.181-1.151,3.046-1.219,4.143-0.149c1.098,1.07,1.027,2.887-0.154,4.039L67.202,25.13
		c-1.182,1.151-3.046,1.219-4.144,0.149c-1.098-1.07-1.029-2.887,0.152-4.039L82.85,2.094z"/>
</g>
<g>
	<path d="M66.751,21.123c1.183,1.152,1.251,2.97,0.154,4.039c-1.098,1.07-2.96,1.003-4.142-0.149l-7.672-7.479
		c-1.181-1.152-1.249-2.969-0.151-4.039c1.095-1.07,2.96-1.002,4.141,0.149L66.751,21.123z"/>
</g>
<g>
	<path d="M0,52c0,1.65,1.27,3,2.821,3c1.551,0,2.82-1.35,2.82-3V30.5c0-1.65-1.27-3-2.82-3C1.27,27.5,0,28.85,0,30.5V52z"/>
</g>
<g>
	<path d="M5.151,2.094C3.969,0.943,2.105,0.875,1.008,1.945c-1.097,1.07-1.028,2.887,0.153,4.039L20.799,25.13
		c1.182,1.151,3.045,1.219,4.143,0.149c1.097-1.07,1.027-2.887-0.153-4.039L5.151,2.094z"/>
</g>
<g>
	<path d="M21.248,21.123c-1.182,1.152-1.25,2.97-0.154,4.039c1.098,1.07,2.961,1.003,4.143-0.149l7.67-7.479
		c1.181-1.152,1.25-2.969,0.153-4.039c-1.097-1.07-2.96-1.002-4.142,0.149L21.248,21.123z"/>
</g>
</svg>
