<?xml version="1.0" encoding="utf-8"?>
<!-- Generator: Adobe Illustrator 16.0.0, SVG Export Plug-In . SVG Version: 6.00 Build 0)  -->
<!DOCTYPE svg PUBLIC "-//W3C//DTD SVG 1.1//EN" "http://www.w3.org/Graphics/SVG/1.1/DTD/svg11.dtd">
<svg version="1.1" id="Calque_1" xmlns="http://www.w3.org/2000/svg" xmlns:xlink="http://www.w3.org/1999/xlink" x="0px" y="0px"
	 width="90px" height="55px" viewBox="10 0.5 90 55" enable-background="new 10 0.5 90 55" xml:space="preserve">
<g>
	<path fill="#FFFFFF" d="M57.821,52.5c0,1.65-1.27,3-2.821,3c-1.552,0-2.822-1.35-2.822-3v-49c0-1.65,1.27-3,2.822-3
		c1.552,0,2.821,1.35,2.821,3V52.5z"/>
</g>
<g>
	<path fill="#FFFFFF" d="M99.014,52.5c0,1.65-1.27,3-2.821,3s-2.821-1.35-2.821-3V31c0-1.65,1.27-3,2.821-3s2.821,1.35,2.821,3V52.5
		z"/>
</g>
<g>
	<path fill="#FFFFFF" d="M93.862,2.594c1.182-1.151,3.046-1.219,4.144-0.149c1.097,1.07,1.027,2.887-0.154,4.039L78.209,25.63
		c-1.182,1.151-3.047,1.219-4.145,0.149c-1.097-1.07-1.028-2.887,0.153-4.039L93.862,2.594z"/>
</g>
<g>
	<path fill="#FFFFFF" d="M77.759,21.623c1.182,1.152,1.251,2.97,0.153,4.039c-1.097,1.07-2.961,1.003-4.143-0.149l-7.673-7.479
		c-1.182-1.152-1.251-2.969-0.153-4.039c1.097-1.07,2.961-1.002,4.143,0.149L77.759,21.623z"/>
</g>
<g>
	<path fill="#FFFFFF" d="M10.987,52.5c0,1.65,1.27,3,2.822,3c1.552,0,2.821-1.35,2.821-3V31c0-1.65-1.27-3-2.821-3
		c-1.552,0-2.822,1.35-2.822,3V52.5z"/>
</g>
<g>
	<path fill="#FFFFFF" d="M16.139,2.594c-1.182-1.151-3.046-1.219-4.144-0.149c-1.097,1.07-1.028,2.887,0.153,4.039L31.792,25.63
		c1.182,1.151,3.046,1.219,4.144,0.149c1.097-1.07,1.028-2.887-0.153-4.039L16.139,2.594z"/>
</g>
<g>
	<path fill="#FFFFFF" d="M32.241,21.623c-1.182,1.152-1.25,2.97-0.154,4.039c1.098,1.07,2.962,1.003,4.144-0.149l7.673-7.479
		c1.181-1.152,1.25-2.969,0.153-4.039c-1.097-1.07-2.961-1.002-4.143,0.149L32.241,21.623z"/>
</g>
</svg>
