<?xml version="1.0" encoding="utf-8"?>
<!-- Generator: Adobe Illustrator 16.0.0, SVG Export Plug-In . SVG Version: 6.00 Build 0)  -->
<!DOCTYPE svg PUBLIC "-//W3C//DTD SVG 1.1//EN" "http://www.w3.org/Graphics/SVG/1.1/DTD/svg11.dtd">
<svg version="1.1" id="Calque_1" xmlns="http://www.w3.org/2000/svg" xmlns:xlink="http://www.w3.org/1999/xlink" x="0px" y="0px"
	 width="270px" height="170px" viewBox="31 0 270 170" enable-background="new 31 0 270 170" xml:space="preserve">
<g>
	<path fill="#FFFFFF" d="M174.535,160c0,5.5-3.825,10-8.5,10s-8.5-4.5-8.5-10V10c0-5.5,3.825-10,8.5-10s8.5,4.5,8.5,10V160z"/>
</g>
<g>
	<path fill="#FFFFFF" d="M298.111,160c0,5.5-3.825,10-8.5,10s-8.5-4.5-8.5-10V95c0-5.5,3.825-10,8.5-10s8.5,4.5,8.5,10V160z"/>
</g>
<g>
	<path fill="#FFFFFF" d="M281.974,7.086c3.881-3.897,9.749-4.381,13.041-1.075s2.811,9.199-1.07,13.097l-57.709,57.953
		c-3.881,3.897-9.749,4.381-13.04,1.075c-3.292-3.306-2.811-9.2,1.07-13.097L281.974,7.086z"/>
</g>
<g>
	<path fill="#FFFFFF" d="M233.668,64.676c3.881,3.897,4.362,9.791,1.071,13.098c-3.291,3.306-9.159,2.822-13.04-1.075l-21.8-21.892
		c-3.881-3.897-4.362-9.791-1.071-13.096c3.292-3.306,9.16-2.822,13.041,1.075L233.668,64.676z"/>
</g>
<g>
	<path fill="#FFFFFF" d="M33.961,160c0,5.5,3.825,10,8.5,10s8.5-4.5,8.5-10V95c0-5.5-3.825-10-8.5-10s-8.5,4.5-8.5,10V160z"/>
</g>
<g>
	<path fill="#FFFFFF" d="M50.026,7.086c-3.881-3.897-9.75-4.381-13.041-1.075c-3.292,3.306-2.81,9.199,1.071,13.097l57.708,57.953
		c3.881,3.897,9.75,4.381,13.042,1.075c3.292-3.306,2.81-9.2-1.071-13.097L50.026,7.086z"/>
</g>
<g>
	<path fill="#FFFFFF" d="M98.333,64.676c-3.881,3.897-4.363,9.791-1.072,13.098c3.292,3.306,9.16,2.822,13.041-1.075l21.799-21.892
		c3.881-3.897,4.363-9.791,1.071-13.096c-3.292-3.306-9.161-2.822-13.042,1.075L98.333,64.676z"/>
</g>
</svg>
